<svg width="24" height="25" viewBox="0 0 24 25" fill="none" xmlns="http://www.w3.org/2000/svg">
<g id="Balane" filter="url(#filter0_i_93_889)">
<path id="$" d="M19 16.3272C19 17.2147 18.7549 18.051 18.2646 18.836C17.7925 19.604 17.0843 20.244 16.1401 20.756C15.214 21.251 14.1154 21.5411 12.8444 21.6264V23.7H11.1012V21.6008C9.28534 21.4472 7.82361 20.9352 6.71595 20.0648C5.6083 19.1774 5.03632 17.9827 5 16.4808H9.0856C9.19455 17.7096 9.86641 18.452 11.1012 18.708V13.8184C9.79377 13.5112 8.7406 13.204 7.94163 12.8968C7.14267 12.5896 6.45266 12.0947 5.8716 11.412C5.29053 10.7294 5 9.79922 5 8.62162C5 7.13682 5.56291 5.92509 6.68872 4.98642C7.83268 4.04775 9.3035 3.51015 11.1012 3.37362V1.30002H12.8444V3.37362C14.5875 3.51015 15.9767 4.00509 17.0117 4.85842C18.0649 5.71175 18.655 6.88936 18.7821 8.39122H14.6693C14.6148 7.89629 14.4241 7.46962 14.0973 7.11122C13.7886 6.73576 13.3709 6.47122 12.8444 6.31762V11.156C14.2062 11.4803 15.2776 11.796 16.0584 12.1032C16.8573 12.3934 17.5473 12.8798 18.1284 13.5624C18.7095 14.228 19 15.1496 19 16.3272ZM8.97665 8.44242C8.97665 9.00562 9.15824 9.46642 9.5214 9.82482C9.88457 10.1662 10.4112 10.4478 11.1012 10.6696V6.24082C10.4475 6.32615 9.92996 6.55656 9.54864 6.93202C9.16732 7.30749 8.97665 7.81096 8.97665 8.44242ZM12.8444 18.7592C13.5344 18.6398 14.07 18.3752 14.4514 17.9656C14.8508 17.556 15.0506 17.0611 15.0506 16.4808C15.0506 15.9176 14.8599 15.4654 14.4786 15.124C14.0973 14.7827 13.5525 14.5011 12.8444 14.2792V18.7592Z" fill="#51257E"/>
</g>
<defs>
<filter id="filter0_i_93_889" x="0" y="0.5" width="24" height="26.4" filterUnits="userSpaceOnUse" color-interpolation-filters="sRGB">
<feFlood flood-opacity="0" result="BackgroundImageFix"/>
<feBlend mode="normal" in="SourceGraphic" in2="BackgroundImageFix" result="shape"/>
<feColorMatrix in="SourceAlpha" type="matrix" values="0 0 0 0 0 0 0 0 0 0 0 0 0 0 0 0 0 0 127 0" result="hardAlpha"/>
<feOffset dy="2.4"/>
<feGaussianBlur stdDeviation="1.8"/>
<feComposite in2="hardAlpha" operator="arithmetic" k2="-1" k3="1"/>
<feColorMatrix type="matrix" values="0 0 0 0 0.204494 0 0 0 0 0.0866667 0 0 0 0 0.325 0 0 0 0.9 0"/>
<feBlend mode="normal" in2="shape" result="effect1_innerShadow_93_889"/>
</filter>
</defs>
</svg>
