<svg width="166" height="131" viewBox="0 0 166 131" fill="none" xmlns="http://www.w3.org/2000/svg">
<g filter="url(#filter0_ii_95_1109)">
<circle cx="77" cy="65.5" r="65.5" fill="#FFC83A"/>
</g>
<mask id="mask0_95_1109" style="mask-type:alpha" maskUnits="userSpaceOnUse" x="11" y="0" width="132" height="131">
<circle cx="77" cy="65.5" r="65.5" fill="#FFC83A"/>
</mask>
<g mask="url(#mask0_95_1109)">
<g style="mix-blend-mode:hard-light" opacity="0.14">
<path d="M60.1218 112.455L34.9912 78.2339C33.5262 76.2268 30.6901 76.2268 29.2251 78.2339L4.09447 112.455C2.19747 115.024 3.92543 118.797 6.98693 118.797H19.3644C19.7776 127.447 21.0548 142.721 25.0179 154.543C25.7504 156.711 27.6661 158.136 29.8261 158.136H34.3902C36.5313 158.136 38.4659 156.711 39.1984 154.543C43.1615 142.721 44.4387 127.447 44.8519 118.797H57.2293C60.2908 118.797 62 115.024 60.1218 112.455Z" fill="#6F4A02"/>
</g>
<g style="mix-blend-mode:hard-light" opacity="0.15">
<path d="M148.042 96.5475L122.911 62.3268C121.446 60.3197 118.61 60.3197 117.145 62.3268L92.0144 96.5475C90.1174 99.1165 91.8454 102.89 94.9069 102.89H107.284C107.698 111.54 108.975 126.814 112.938 138.636C113.67 140.804 115.586 142.229 117.746 142.229H122.31C124.451 142.229 126.386 140.804 127.118 138.636C131.081 126.814 132.359 111.54 132.772 102.89H145.149C148.211 102.89 149.92 99.1165 148.042 96.5475Z" fill="#6F4A02"/>
</g>
<g opacity="0.6">
<g style="mix-blend-mode:hard-light" opacity="0.2">
<path d="M39.0903 30.5962L22.3366 9.35575C21.3599 8.10997 19.4692 8.10997 18.4925 9.35575L1.73876 30.5962C0.474096 32.1908 1.62607 34.5328 3.66707 34.5328H11.9187C12.1942 39.9021 13.0457 49.3825 15.6877 56.7201C16.176 58.0655 17.4532 58.95 18.8932 58.95H21.9359C23.3633 58.95 24.6531 58.0655 25.1414 56.7201C27.7834 49.3825 28.6349 39.9021 28.9104 34.5328H37.162C39.203 34.5328 40.3425 32.1908 39.0903 30.5962Z" fill="#6F4A02"/>
</g>
<g style="mix-blend-mode:hard-light" opacity="0.2">
<path d="M96.4233 22.1748L79.6696 0.93433C78.6929 -0.311443 76.8022 -0.311443 75.8255 0.93433L59.0718 22.1748C57.8071 23.7694 58.9591 26.1114 61.0001 26.1114H69.2517C69.5272 31.4807 70.3787 40.961 73.0207 48.2986C73.509 49.6441 74.7862 50.5286 76.2262 50.5286H79.2689C80.6963 50.5286 81.9861 49.6441 82.4744 48.2986C85.1164 40.961 85.9679 31.4807 86.2434 26.1114H94.495C96.536 26.1114 97.6755 23.7694 96.4233 22.1748Z" fill="#6F4A02"/>
</g>
<g style="mix-blend-mode:hard-light" opacity="0.2">
<path d="M150.812 16.5605L134.058 -4.67996C133.082 -5.92573 131.191 -5.92573 130.214 -4.67996L113.46 16.5605C112.196 18.1551 113.348 20.4971 115.389 20.4971H123.64C123.916 25.8664 124.767 35.3467 127.409 42.6843C127.898 44.0298 129.175 44.9143 130.615 44.9143H133.658C135.085 44.9143 136.375 44.0298 136.863 42.6843C139.505 35.3467 140.357 25.8664 140.632 20.4971H148.884C150.925 20.4971 152.064 18.1551 150.812 16.5605Z" fill="#6F4A02"/>
</g>
</g>
</g>
<g filter="url(#filter1_i_95_1109)">
<path d="M45.6924 67.4709H40.8937V72.38H36.4259V67.4709H31.6272V63.2514H36.4259V58.3147H40.8937V63.2514H45.6924V67.4709ZM53.3551 59.2524V54.8674H60.9944V75H56.0854V59.2524H53.3551ZM69.4881 70.6425L66.4268 78.5577H63.4207L65.0203 70.6425H69.4881ZM71.5871 64.6579C71.5871 61.4955 72.1939 59.0042 73.4073 57.184C74.6392 55.3638 76.6157 54.4537 79.3368 54.4537C82.0579 54.4537 84.0252 55.3638 85.2387 57.184C86.4706 59.0042 87.0865 61.4955 87.0865 64.6579C87.0865 67.8571 86.4706 70.3667 85.2387 72.1869C84.0252 74.0072 82.0579 74.9173 79.3368 74.9173C76.6157 74.9173 74.6392 74.0072 73.4073 72.1869C72.1939 70.3667 71.5871 67.8571 71.5871 64.6579ZM82.4532 64.6579C82.4532 62.8009 82.251 61.376 81.8465 60.3832C81.442 59.3719 80.6054 58.8663 79.3368 58.8663C78.0682 58.8663 77.2316 59.3719 76.8271 60.3832C76.4226 61.376 76.2204 62.8009 76.2204 64.6579C76.2204 65.9081 76.2939 66.9469 76.441 67.7743C76.5881 68.5833 76.8823 69.2452 77.3235 69.76C77.7832 70.2564 78.4543 70.5046 79.3368 70.5046C80.2193 70.5046 80.8812 70.2564 81.3225 69.76C81.7821 69.2452 82.0855 68.5833 82.2326 67.7743C82.3797 66.9469 82.4532 65.9081 82.4532 64.6579ZM89.3023 64.6579C89.3023 61.4955 89.909 59.0042 91.1225 57.184C92.3543 55.3638 94.3308 54.4537 97.052 54.4537C99.7731 54.4537 101.74 55.3638 102.954 57.184C104.186 59.0042 104.802 61.4955 104.802 64.6579C104.802 67.8571 104.186 70.3667 102.954 72.1869C101.74 74.0072 99.7731 74.9173 97.052 74.9173C94.3308 74.9173 92.3543 74.0072 91.1225 72.1869C89.909 70.3667 89.3023 67.8571 89.3023 64.6579ZM100.168 64.6579C100.168 62.8009 99.9661 61.376 99.5616 60.3832C99.1572 59.3719 98.3206 58.8663 97.052 58.8663C95.7833 58.8663 94.9468 59.3719 94.5423 60.3832C94.1378 61.376 93.9355 62.8009 93.9355 64.6579C93.9355 65.9081 94.0091 66.9469 94.1562 67.7743C94.3033 68.5833 94.5974 69.2452 95.0387 69.76C95.4983 70.2564 96.1694 70.5046 97.052 70.5046C97.9345 70.5046 98.5964 70.2564 99.0376 69.76C99.4973 69.2452 99.8007 68.5833 99.9478 67.7743C100.095 66.9469 100.168 65.9081 100.168 64.6579ZM107.017 64.6579C107.017 61.4955 107.624 59.0042 108.838 57.184C110.07 55.3638 112.046 54.4537 114.767 54.4537C117.488 54.4537 119.456 55.3638 120.669 57.184C121.901 59.0042 122.517 61.4955 122.517 64.6579C122.517 67.8571 121.901 70.3667 120.669 72.1869C119.456 74.0072 117.488 74.9173 114.767 74.9173C112.046 74.9173 110.07 74.0072 108.838 72.1869C107.624 70.3667 107.017 67.8571 107.017 64.6579ZM117.884 64.6579C117.884 62.8009 117.681 61.376 117.277 60.3832C116.872 59.3719 116.036 58.8663 114.767 58.8663C113.498 58.8663 112.662 59.3719 112.257 60.3832C111.853 61.376 111.651 62.8009 111.651 64.6579C111.651 65.9081 111.724 66.9469 111.871 67.7743C112.018 68.5833 112.313 69.2452 112.754 69.76C113.214 70.2564 113.885 70.5046 114.767 70.5046C115.65 70.5046 116.312 70.2564 116.753 69.76C117.212 69.2452 117.516 68.5833 117.663 67.7743C117.81 66.9469 117.884 65.9081 117.884 64.6579Z" fill="#6F4A02"/>
</g>
<path style="mix-blend-mode:screen" opacity="0.25" fill-rule="evenodd" clip-rule="evenodd" d="M162.117 13.9831C154.629 2.09664 134.993 -3.00628 118.254 2.56873C101.515 8.15295 94.0001 22.3058 101.475 34.1834C108.963 46.0606 128.599 51.1727 145.339 45.5977C162.078 40.0135 169.592 25.8607 162.117 13.9831Z" fill="url(#paint0_radial_95_1109)"/>
<path style="mix-blend-mode:screen" opacity="0.31" fill-rule="evenodd" clip-rule="evenodd" d="M59.9692 90.2386C52.9207 76.9474 34.5686 71.1588 18.9735 77.2908C3.37872 83.4331 -3.56342 99.1759 3.47279 112.457C10.521 125.738 28.8733 131.537 44.4684 125.405C60.0632 119.263 67.0054 103.52 59.9692 90.2386Z" fill="url(#paint1_radial_95_1109)"/>
<defs>
<filter id="filter0_ii_95_1109" x="11.5" y="-6.55" width="131" height="152.521" filterUnits="userSpaceOnUse" color-interpolation-filters="sRGB">
<feFlood flood-opacity="0" result="BackgroundImageFix"/>
<feBlend mode="normal" in="SourceGraphic" in2="BackgroundImageFix" result="shape"/>
<feColorMatrix in="SourceAlpha" type="matrix" values="0 0 0 0 0 0 0 0 0 0 0 0 0 0 0 0 0 0 127 0" result="hardAlpha"/>
<feOffset dy="14.9714"/>
<feGaussianBlur stdDeviation="16.375"/>
<feComposite in2="hardAlpha" operator="arithmetic" k2="-1" k3="1"/>
<feColorMatrix type="matrix" values="0 0 0 0 1 0 0 0 0 0.9087 0 0 0 0 0.585 0 0 0 1 0"/>
<feBlend mode="normal" in2="shape" result="effect1_innerShadow_95_1109"/>
<feColorMatrix in="SourceAlpha" type="matrix" values="0 0 0 0 0 0 0 0 0 0 0 0 0 0 0 0 0 0 127 0" result="hardAlpha"/>
<feMorphology radius="3.74286" operator="dilate" in="SourceAlpha" result="effect2_innerShadow_95_1109"/>
<feOffset dy="-18.7143"/>
<feGaussianBlur stdDeviation="5.14643"/>
<feComposite in2="hardAlpha" operator="arithmetic" k2="-1" k3="1"/>
<feColorMatrix type="matrix" values="0 0 0 0 0.879167 0 0 0 0 0.5275 0 0 0 0 0 0 0 0 0.6 0"/>
<feBlend mode="normal" in2="effect1_innerShadow_95_1109" result="effect2_innerShadow_95_1109"/>
</filter>
<filter id="filter1_i_95_1109" x="31.627" y="54.4537" width="90.8896" height="25.9754" filterUnits="userSpaceOnUse" color-interpolation-filters="sRGB">
<feFlood flood-opacity="0" result="BackgroundImageFix"/>
<feBlend mode="normal" in="SourceGraphic" in2="BackgroundImageFix" result="shape"/>
<feColorMatrix in="SourceAlpha" type="matrix" values="0 0 0 0 0 0 0 0 0 0 0 0 0 0 0 0 0 0 127 0" result="hardAlpha"/>
<feOffset dy="1.87143"/>
<feGaussianBlur stdDeviation="1.40357"/>
<feComposite in2="hardAlpha" operator="arithmetic" k2="-1" k3="1"/>
<feColorMatrix type="matrix" values="0 0 0 0 0.23 0 0 0 0 0.170311 0 0 0 0 0.0233834 0 0 0 0.9 0"/>
<feBlend mode="normal" in2="shape" result="effect1_innerShadow_95_1109"/>
</filter>
<radialGradient id="paint0_radial_95_1109" cx="0" cy="0" r="1" gradientUnits="userSpaceOnUse" gradientTransform="translate(131.721 24.3615) rotate(-18.4284) scale(31.9651 24.6973)">
<stop offset="0.02" stop-color="#FF34FB"/>
<stop offset="0.33" stop-color="#B224AF"/>
<stop offset="1"/>
</radialGradient>
<radialGradient id="paint1_radial_95_1109" cx="0" cy="0" r="1" gradientUnits="userSpaceOnUse" gradientTransform="translate(31.6526 101.658) rotate(-21.4744) scale(30.3602 27.0594)">
<stop offset="0.02" stop-color="#FF34FB"/>
<stop offset="0.33" stop-color="#B224AF"/>
<stop offset="1"/>
</radialGradient>
</defs>
</svg>
