<svg width="200" height="29" viewBox="0 0 200 29" fill="none" xmlns="http://www.w3.org/2000/svg">
<g id="Group">
<path id="Vector" d="M7.62898 6.03363H0V0.781433H21.7158V6.03363H13.9998V28.4373H7.62898V6.03363Z" fill="#F7F8FB"/>
<path id="Vector_2" d="M41.9187 16.741H31.5192V23.303H43.1299V28.4308H25.1416V0.781433H42.541V5.9092H31.5125V11.6526H41.912V16.741H41.9187Z" fill="#F7F8FB"/>
<path id="Vector_3" d="M68.2066 27.6972C67.0756 28.2343 64.3921 28.8891 60.9992 28.8891C51.2287 28.8891 46.1963 22.8969 46.1963 15.0252C46.1963 5.58827 53.0691 0.375366 61.6216 0.375366C64.9341 0.375366 67.4504 0.990958 68.5813 1.60655L67.2362 6.5313C65.9781 6.00084 64.1779 5.50313 61.8692 5.50313C56.8367 5.50313 52.8951 8.49596 52.8951 14.6519C52.8951 20.1922 56.2478 23.6762 61.9093 23.6762C63.8768 23.6762 65.9781 23.3095 67.2764 22.7725L68.1999 27.6972H68.2066Z" fill="#F7F8FB"/>
<path id="Vector_4" d="M78.8513 0.781433V11.4102H89.3713V0.781433H95.7422V28.4308H89.3713V16.8589H78.8513V28.4308H72.4805V0.781433H78.8513Z" fill="#F7F8FB"/>
<path id="Vector_5" d="M101.699 0.781433H105.386V25.4379H117.459V28.4308H101.692V0.781433H101.699Z" fill="#F7F8FB"/>
<path id="Vector_6" d="M144.04 14.3179C144.04 23.7941 138.131 28.8826 130.916 28.8826C123.702 28.8826 118.215 23.1785 118.215 14.8091C118.215 6.02705 123.749 0.283691 131.298 0.283691C138.847 0.283691 144.04 6.06634 144.04 14.3179ZM122.069 14.7305C122.069 20.6769 125.342 25.9749 131.124 25.9749C136.906 25.9749 140.178 20.762 140.178 14.4882C140.178 8.94785 137.24 3.20449 131.164 3.20449C125.088 3.20449 122.069 8.69899 122.069 14.7305Z" fill="#F7F8FB"/>
<path id="Vector_7" d="M170.32 27.2061C168.687 27.8217 165.415 28.7254 161.6 28.7254C157.324 28.7254 153.804 27.658 151.033 25.0712C148.604 22.7725 147.092 19.079 147.092 14.7764C147.092 6.53133 152.921 0.499817 162.397 0.499817C165.669 0.499817 168.266 1.20055 169.484 1.7703L168.56 4.68454C167.048 3.98382 165.167 3.49265 162.316 3.49265C155.444 3.49265 150.953 7.67738 150.953 14.6126C150.953 21.5479 155.229 25.7719 161.855 25.7719C164.244 25.7719 165.877 25.4445 166.72 25.0319V16.7869H161.018V13.9119H170.327V27.2061H170.32Z" fill="#F7F8FB"/>
<path id="Vector_8" d="M200.001 14.3179C200.001 23.7941 194.091 28.8826 186.877 28.8826C179.663 28.8826 174.176 23.1785 174.176 14.8091C174.176 6.02705 179.71 0.283691 187.259 0.283691C194.808 0.283691 200.001 6.06634 200.001 14.3179ZM178.03 14.7305C178.03 20.6769 181.303 25.9749 187.085 25.9749C192.867 25.9749 196.139 20.762 196.139 14.4882C196.139 8.94785 193.201 3.20449 187.125 3.20449C181.049 3.20449 178.03 8.69899 178.03 14.7305Z" fill="#F7F8FB"/>
</g>
</svg>
