<svg width="471" height="582" viewBox="0 0 471 582" fill="none" xmlns="http://www.w3.org/2000/svg">
<path fill-rule="evenodd" clip-rule="evenodd" d="M0.051707 0H471.225V581.157C460.521 578.096 453.368 577.076 442.461 576.77C421.46 576.259 418.974 572.484 402.335 566.924C393.609 564.016 385.594 562.537 376.412 562.129C367.585 561.823 359.976 561.772 351.098 561.109C337.452 560.088 326.951 559.374 313.711 555.497C294.687 549.886 286.773 541.979 271.808 539.428C257.503 537.031 249.944 542.081 235.638 535.653C224.224 537.847 214.839 539.785 203.527 542.846C193.939 545.448 188.206 546.978 180.952 547.386C165.125 548.203 161.523 544.581 144.884 552.028C123.882 561.721 112.772 560.854 90.5019 560.803C78.4791 560.803 71.4785 561.772 59.8107 565.088C38.6059 571.464 22.9306 581.208 0.000976562 581.157V0H0.051707Z" fill="url(#paint0_radial_102_3214)"/>
<defs>
<radialGradient id="paint0_radial_102_3214" cx="0" cy="0" r="1" gradientUnits="userSpaceOnUse" gradientTransform="translate(227.572 426.211) rotate(0.669304) scale(443.958 446.438)">
<stop stop-color="#B927CC"/>
<stop offset="0.666265" stop-color="#7A009C"/>
<stop offset="0.748587" stop-color="#6C008A"/>
<stop offset="0.84" stop-color="#5A0073"/>
<stop offset="0.88" stop-color="#4D0063"/>
<stop offset="0.93" stop-color="#460059"/>
<stop offset="0.99" stop-color="#440057"/>
</radialGradient>
</defs>
</svg>
