<svg width="24" height="25" viewBox="0 0 24 25" fill="none" xmlns="http://www.w3.org/2000/svg">
<g id="eye-alt" filter="url(#filter0_i_95_994)">
<path id="Vector" d="M8.59473 12.5C8.59473 10.7051 10.1191 9.25 11.9996 9.25C13.8801 9.25 15.4045 10.7051 15.4045 12.5C15.4045 14.2949 13.8801 15.75 11.9996 15.75C10.1191 15.75 8.59473 14.2949 8.59473 12.5Z" fill="#73570F"/>
<g id="Vector_2">
<path d="M12 20.5C16.2365 20.5 19.8856 16.2113 21.5364 13.9141C22.1545 13.0538 22.1545 11.9462 21.5364 11.0859C19.8856 8.78871 16.2365 4.5 12 4.5C7.76354 4.5 4.11439 8.78871 2.46363 11.0859C1.84546 11.9462 1.84546 13.0538 2.46363 13.9141C4.11439 16.2113 7.76354 20.5 12 20.5ZM12 7.75C14.7484 7.75 16.9764 9.87665 16.9764 12.5C16.9764 15.1234 14.7484 17.25 12 17.25C9.25161 17.25 7.0236 15.1234 7.0236 12.5C7.0236 9.87665 9.25161 7.75 12 7.75Z" fill="#73570F"/>
</g>
</g>
<defs>
<filter id="filter0_i_95_994" x="0" y="0.5" width="24" height="26.4" filterUnits="userSpaceOnUse" color-interpolation-filters="sRGB">
<feFlood flood-opacity="0" result="BackgroundImageFix"/>
<feBlend mode="normal" in="SourceGraphic" in2="BackgroundImageFix" result="shape"/>
<feColorMatrix in="SourceAlpha" type="matrix" values="0 0 0 0 0 0 0 0 0 0 0 0 0 0 0 0 0 0 127 0" result="hardAlpha"/>
<feOffset dy="2.4"/>
<feGaussianBlur stdDeviation="1.8"/>
<feComposite in2="hardAlpha" operator="arithmetic" k2="-1" k3="1"/>
<feColorMatrix type="matrix" values="0 0 0 0 0.2175 0 0 0 0 0.161416 0 0 0 0 0.0212063 0 0 0 1 0"/>
<feBlend mode="normal" in2="shape" result="effect1_innerShadow_95_994"/>
</filter>
</defs>
</svg>
